<svg xmlns="http://www.w3.org/2000/svg" width="23.904" height="25.886"><g data-name="グループ 335"><path data-name="パス 651" d="M8.484 4.833a20.011 20.011 0 00-5.247 9.088c-1.078 4.1.906 7.23 2.637 7.422.788.087 1.254-.546 1.874-1.771 2.77-5.478 3.24-6.92 6.855-12.138 1.322-1.909 2.086-2.83 1.63-3.748-.84-1.69-4.568-2.003-7.748 1.147m12.163 7.197a19.566 19.566 0 01-5.133 8.89c-2.946 2.919-6.573 2.767-7.578 1.399-.46-.625-.156-1.33.584-2.455 3.289-5.03 4.278-6.129 6.93-11.743.97-2.054 1.378-3.151 2.378-3.214 1.842-.114 3.931 2.89 2.815 7.124" fill="#785039" fill-rule="evenodd"/></g></svg>