<svg xmlns="http://www.w3.org/2000/svg" width="573.525" height="38.258"><defs><clipPath id="a"><path data-name="長方形 376" fill="#fff" d="M0 0h40.799v33.472H0z"/></clipPath></defs><g data-name="グループ 529"><g data-name="グループ 528"><g data-name="グループ 455" fill="#fff"><path data-name="パス 640" d="M8.442 0L0 4.691l23.452 32.831z"/><path data-name="パス 641" d="M565.083 0l8.442 4.691-23.452 32.831z"/></g><g data-name="グループ 454"><path data-name="パス 697" d="M101.181 11.031h5.487a1.463 1.463 0 001.519-1.581 1.463 1.463 0 00-1.519-1.581H91.819A1.463 1.463 0 0090.3 9.45a1.463 1.463 0 001.519 1.581h5.456v18.724a1.771 1.771 0 001.984 1.767 1.72 1.72 0 001.922-1.767zm17.98 14.043a64.918 64.918 0 001.333-5.8h.217c.4 1.891.837 3.844 1.4 5.859l1.142 4.219c.434 1.55 1.116 2.139 2.511 2.139 1.271 0 1.953-.651 2.387-2.046l3.751-12.4a2.641 2.641 0 00.124-.713c0-.775-.713-1.364-1.86-1.364a1.386 1.386 0 00-1.457 1.147l-1.612 6.324c-.527 2.108-.93 4.154-1.3 6.169h-.248c-.465-2.046-.806-4-1.364-6.045l-1.4-5.084a2.044 2.044 0 00-2.139-1.7c-1.147 0-1.7.527-2.046 1.736l-1.392 5.107a92.46 92.46 0 00-1.426 5.983h-.279c-.279-1.922-.589-4.03-1.054-6.169l-1.364-6.228a1.438 1.438 0 00-1.612-1.24c-1.178 0-1.891.589-1.891 1.426a3.112 3.112 0 00.124.744l3.379 12.184c.372 1.395.992 2.17 2.418 2.17s2.077-.744 2.449-2.108zm15.748 4.8c0 1.023.682 1.612 1.8 1.612a1.561 1.561 0 001.767-1.612v-13.3a1.561 1.561 0 00-1.767-1.612c-1.116 0-1.8.589-1.8 1.612zm1.767-22.289a2.315 2.315 0 00-2.294 2.325 2.269 2.269 0 002.294 2.294 2.277 2.277 0 002.325-2.294 2.322 2.322 0 00-2.325-2.32zm11.222 10.54h3.069a1.394 1.394 0 001.55-1.457 1.394 1.394 0 00-1.55-1.457h-3.069v-4.185a1.576 1.576 0 00-1.767-1.604c-1.116 0-1.8.589-1.8 1.612v4.185h-1.579a1.379 1.379 0 00-1.55 1.457 1.379 1.379 0 001.55 1.457h1.581v8.215c0 3.751 1.488 5.146 4.743 5.146a8.971 8.971 0 002.914-.472 1.185 1.185 0 00.806-1.178c0-.93-.5-1.457-1.085-1.457a4.246 4.246 0 00-.992.186 4.671 4.671 0 01-1.147.155c-1.023 0-1.674-.589-1.674-2.108zm12.431 0h3.069a1.394 1.394 0 001.55-1.457 1.394 1.394 0 00-1.55-1.457h-3.073v-4.185a1.576 1.576 0 00-1.763-1.604c-1.116 0-1.8.589-1.8 1.612v4.185h-1.579a1.379 1.379 0 00-1.55 1.457 1.379 1.379 0 001.55 1.457h1.581v8.215c0 3.751 1.488 5.146 4.743 5.146a8.971 8.971 0 002.918-.472 1.185 1.185 0 00.8-1.174c0-.93-.5-1.457-1.085-1.457a4.246 4.246 0 00-.992.186 4.671 4.671 0 01-1.147.155c-1.021 0-1.676-.589-1.676-2.11zm17.7 6.076a2.414 2.414 0 002.635-2.728 6.518 6.518 0 00-6.51-6.634c-4.123 0-7.223 3.193-7.223 8.339 0 5.363 2.945 8.432 7.44 8.432a8.843 8.843 0 005.643-1.888 1.354 1.354 0 00.434-1.085 1.437 1.437 0 00-1.488-1.426 1.544 1.544 0 00-.961.372 5.2 5.2 0 01-3.627 1.209c-2.015 0-3.968-1.674-4.092-4.588zm-7.656-2.568c.124-2.325 1.55-4.061 3.72-4.061a3.319 3.319 0 013.286 3.286.685.685 0 01-.713.775zm17.329 2.573c0-3.875 1.922-5.952 4.154-5.952a1.546 1.546 0 001.736-1.705c0-1.116-.434-1.736-1.736-1.736-2.108 0-3.565 1.4-4.278 4.123v-2.387a1.556 1.556 0 00-1.674-1.581 1.619 1.619 0 00-1.767 1.581v13.33c0 1.023.682 1.612 1.8 1.612a1.576 1.576 0 001.767-1.612zm18.693-11.222l-6.882 1.054a1.423 1.423 0 00-1.271 1.519 1.579 1.579 0 001.8 1.7l6.944-1.085.775 4.4-9.083 1.519a1.488 1.488 0 00-1.273 1.531 1.6 1.6 0 001.829 1.7l9.083-1.519 1.488 8.277a1.609 1.609 0 001.705 1.333 1.606 1.606 0 001.767-1.829l-1.488-8.37 9.114-1.519a1.488 1.488 0 001.271-1.519 1.592 1.592 0 00-1.86-1.674l-9.083 1.52-.775-4.371 7.037-1.085a1.438 1.438 0 001.271-1.488 1.614 1.614 0 00-1.86-1.7l-7.006 1.085-.9-5.053a1.611 1.611 0 00-1.705-1.3c-.992 0-2.015.651-1.8 1.8zm32.8 5.363l-.961-5.022a1.506 1.506 0 00-1.581-1.178c-.9 0-1.767.558-1.55 1.612l.992 5.084-5.146.806a1.34 1.34 0 00-1.178 1.395 1.429 1.429 0 001.674 1.488l5.208-.837 2.2 11.377a1.433 1.433 0 001.487 1.15c.9 0 1.767-.589 1.581-1.643l-2.17-11.377 6.913-1.116c.4-.062.62 0 .62.217a.653.653 0 01-.124.341 14.682 14.682 0 01-2.728 3.378 1.656 1.656 0 00-.589 1.178 1.609 1.609 0 001.612 1.55 1.8 1.8 0 001.271-.558 18.376 18.376 0 003.658-4.929 3.966 3.966 0 00.5-1.829c0-1.457-1.116-2.387-2.883-2.387a4.693 4.693 0 00-.93.062zm24.862-8.618a2.254 2.254 0 00-1.24-.4 2 2 0 00-1.984 1.891 1.724 1.724 0 00.744 1.395 45.325 45.325 0 014.216 3.751 1.966 1.966 0 001.4.62 2.1 2.1 0 001.984-2.046 1.829 1.829 0 00-.558-1.333 27.836 27.836 0 00-4.564-3.878zm16.616 3.937a34.53 34.53 0 01-17.486 14.663 1.673 1.673 0 00-1.209 1.643 1.89 1.89 0 001.86 1.891 2.192 2.192 0 00.837-.155 37.231 37.231 0 0019.158-16.306 1.849 1.849 0 00.31-.992 1.8 1.8 0 00-1.891-1.7 1.764 1.764 0 00-1.581.956zm30.07-4.712a3.289 3.289 0 00-3.348 3.317 3.3 3.3 0 003.348 3.348 3.289 3.289 0 003.317-3.348 3.282 3.282 0 00-3.319-3.317zm0 5.115a1.8 1.8 0 01-1.8-1.8 1.773 1.773 0 011.8-1.767 1.747 1.747 0 011.767 1.767 1.773 1.773 0 01-1.769 1.8zm-20.832 6.727a2.2 2.2 0 00-.62 1.426 1.728 1.728 0 001.767 1.674 2.121 2.121 0 001.488-.682l5.611-5.642a1.428 1.428 0 011.023-.589 1.7 1.7 0 011.054.5l12.615 10.288a2.549 2.549 0 001.519.589 1.905 1.905 0 001.922-1.891 2.186 2.186 0 00-.93-1.7l-13.7-10.633a4.061 4.061 0 00-2.511-.961 3.864 3.864 0 00-2.7 1.24zm32.333-2.666a1.649 1.649 0 00-1.674 1.767 1.666 1.666 0 001.674 1.767h22.63a1.666 1.666 0 001.674-1.767 1.649 1.649 0 00-1.674-1.767zm34.813-8.4a2.254 2.254 0 00-1.24-.4 2 2 0 00-1.984 1.891 1.724 1.724 0 00.744 1.395 45.331 45.331 0 014.216 3.751 1.966 1.966 0 001.395.62 2.1 2.1 0 001.984-2.046 1.829 1.829 0 00-.558-1.333 27.835 27.835 0 00-4.559-3.879zm16.616 3.937a34.53 34.53 0 01-17.486 14.662 1.673 1.673 0 00-1.209 1.643 1.89 1.89 0 001.86 1.891 2.192 2.192 0 00.837-.155 37.231 37.231 0 0019.158-16.306 1.849 1.849 0 00.31-.992 1.8 1.8 0 00-1.891-1.7 1.764 1.764 0 00-1.581.956zm14.2-6.572c-3.534 0-4.774 1.4-4.774 4.185v21.203c0 .868.868 1.3 1.736 1.3s1.736-.434 1.736-1.3V11.899c0-1.24.4-1.643 1.922-1.643h14.167c1.519 0 1.922.372 1.922 1.612v16.8c0 .961-.31 1.24-.992 1.24a8.705 8.705 0 01-1.643-.155 1.652 1.652 0 00-1.984 1.736 1.713 1.713 0 001.457 1.736 13.231 13.231 0 002.511.217c2.728 0 4.123-1.178 4.123-4.4V11.248c0-2.79-1.209-4.154-4.743-4.154zm9.982 20.615c2.263-.031 3.441-.651 3.472-3.1v-3.628c0-2.232-1.023-3.1-3.472-3.1h-4.774c-2.449 0-3.472.868-3.472 3.1v3.627c0 2.232 1.023 3.1 3.472 3.1zm-4.13-2.729c-.589-.031-.9-.124-.9-.775v-2.821c0-.558.186-.775.9-.775h3.472c.713 0 .9.217.9.775v2.821c0 .558-.186.775-.9.775zm-4.371-12.338a1.327 1.327 0 00-1.24 1.488 1.327 1.327 0 001.24 1.488h12.431a1.35 1.35 0 001.271-1.488 1.35 1.35 0 00-1.271-1.488zm29.856 16.554c2.232-.031 3.1-.9 3.131-3.131V10.659c0-2.17-.868-3.131-3.131-3.131h-2.852c-2.232 0-3.1.961-3.1 3.131v15.407c0 2.17.868 3.131 3.1 3.131zm-2.077-2.975c-.651 0-.744-.341-.744-.9v-5.921h2.821v5.921c0 .682-.155.9-.775.9zm2.077-9.765h-2.821v-5.053c0-.682.155-.9.744-.9h1.3c.62 0 .775.217.775.9zM429.874 15h-5.487a1.378 1.378 0 00-1.333 1.488 1.378 1.378 0 001.333 1.488h15.345a1.359 1.359 0 001.333-1.488A1.359 1.359 0 00439.732 15h-6.541v-2.666h4.278a1.359 1.359 0 001.333-1.488 1.359 1.359 0 00-1.333-1.488h-4.278V6.722a1.493 1.493 0 00-1.643-1.426 1.5 1.5 0 00-1.674 1.426v2.635h-3.968a1.378 1.378 0 00-1.333 1.488 1.378 1.378 0 001.333 1.488h3.968zm3.224 9.269v5.7c0 .589-.217.775-.806.775a5.629 5.629 0 01-1.3-.124 1.508 1.508 0 00-1.831 1.584 1.551 1.551 0 001.24 1.581 11.891 11.891 0 002.418.217c2.418 0 3.6-.961 3.6-3.627v-6.107h2.852a1.359 1.359 0 001.333-1.488 1.37 1.37 0 00-1.333-1.519h-2.856v-1.333a1.493 1.493 0 00-1.643-1.426 1.5 1.5 0 00-1.674 1.426v1.333h-8.215a1.378 1.378 0 00-1.333 1.488 1.388 1.388 0 001.333 1.519zm-5.053 1.27a1.823 1.823 0 00-1.147-.465 1.6 1.6 0 00-1.612 1.488 1.462 1.462 0 00.4.992 18.244 18.244 0 011.581 1.891 1.464 1.464 0 001.209.651 1.758 1.758 0 001.736-1.643 1.639 1.639 0 00-.341-.93 9.344 9.344 0 00-1.826-1.984zm23.994-8.649a5.765 5.765 0 003.069-.62 2.953 2.953 0 00.961-2.573v-4c0-2.232-.806-3.255-4.03-3.255h-3.534c-3.224 0-4.03 1.147-4.03 3.379v23.065c0 .868.837 1.3 1.674 1.3s1.674-.434 1.674-1.3v-16zm-4.216-2.48v-1.55h4.929v.837c0 .558-.186.713-.961.713zm4.929-3.906h-4.927v-.806c0-.558.217-.713.992-.713h2.976c.775 0 .961.155.961.713zm14.508 6.386V29.6c0 .775-.248.992-.93.992a9.707 9.707 0 01-1.3-.124 1.571 1.571 0 00-1.893 1.643 1.547 1.547 0 001.4 1.612 13.649 13.649 0 002.263.186c2.573 0 3.813-1.116 3.813-3.968V9.822c0-2.232-.806-3.379-4-3.379h-3.848c-3.224 0-4 1.023-4 3.255v4c0 2.232.775 3.193 4 3.193zm0-2.48h-4.247c-.744 0-.961-.155-.961-.713v-.837h5.208zm0-3.906h-5.208v-.806c0-.558.217-.713.961-.713h3.286c.744 0 .961.155.961.713zm-5.235 10.54h1.891c.744 0 1.085-.682 1.085-1.333 0-.682-.341-1.333-1.085-1.333h-12.497c-.713 0-1.085.651-1.085 1.333a1.2 1.2 0 001.085 1.333h1.612v1.3c0 .372 0 .713-.031 1.023h-2.79c-.713 0-1.085.651-1.085 1.333a1.2 1.2 0 001.085 1.333h2.449a7.46 7.46 0 01-2.449 4 1.5 1.5 0 00-.558 1.147 1.576 1.576 0 001.581 1.519 1.843 1.843 0 001.178-.5 10.254 10.254 0 003.379-6.169h3.193v5.027a1.378 1.378 0 001.519 1.271 1.361 1.361 0 001.523-1.271v-5.022h2.883c.744 0 1.085-.682 1.085-1.333 0-.682-.341-1.333-1.085-1.333h-2.883zm-3.038 0v2.325h-2.945a7.005 7.005 0 00.031-.806v-1.519zm29.167 11.16h13.271c.682 0 .992-.682.992-1.333 0-.682-.31-1.333-.992-1.333h-6.324v-1.705h4.464a1.108 1.108 0 001.023-1.24 1.108 1.108 0 00-1.023-1.24h-4.464v-1.674h4.464a1.108 1.108 0 001.023-1.24 1.108 1.108 0 00-1.023-1.24h-4.464v-1.7h5.859a1.173 1.173 0 001.085-1.3 1.173 1.173 0 00-1.085-1.3h-5.645c.155-.341.31-.713.5-1.147a1.181 1.181 0 00.124-.527c0-.744-.775-1.178-1.581-1.178a1.5 1.5 0 00-1.488.961 17.9 17.9 0 01-.713 1.891h-3.162c.124-.248.279-.527.4-.775a1.629 1.629 0 00.186-.713A1.467 1.467 0 00488 14.078a1.531 1.531 0 00-1.426.868 29.1 29.1 0 01-4.495 6.7 1.622 1.622 0 00-.527 1.147 1.454 1.454 0 001.519 1.364 1.674 1.674 0 001.271-.589c.248-.248.465-.527.713-.806V33.01c0 .775.775 1.147 1.55 1.147s1.55-.372 1.55-1.147zm0-2.666v-1.705h3.844v1.705zm0-4.185v-1.674h3.844v1.674zm0-4.154v-1.054c0-.434.155-.651.806-.651h3.038v1.7zm3.038-10.261h-2.945c-.558 0-.713-.186-.713-.744V8.179c0-.868-.775-1.271-1.581-1.271-.775 0-1.581.4-1.581 1.271v2.666c0 1.922.775 2.7 2.883 2.7h11.1c2.108 0 2.883-.775 2.883-2.7V8.179c0-.868-.775-1.271-1.581-1.271-.775 0-1.581.4-1.581 1.271v2.015c0 .558-.155.744-.713.744h-3.007v-4.34c0-.868-.775-1.271-1.581-1.271-.775 0-1.581.4-1.581 1.271zm-13.578 22.227c0 .837.837 1.24 1.674 1.24s1.674-.4 1.674-1.24V16.422a1.4 1.4 0 00-1.364-1.24 45.041 45.041 0 002.759-7.781 2.392 2.392 0 00.062-.465 1.635 1.635 0 00-1.8-1.55 1.609 1.609 0 00-1.674 1.178 37.8 37.8 0 01-4.867 11.78 1.985 1.985 0 00-.372 1.085 1.615 1.615 0 001.643 1.55 1.766 1.766 0 001.519-.868c.248-.372.5-.744.744-1.147zm40.114-9.3v9.207c0 .93.868 1.395 1.736 1.395s1.736-.465 1.736-1.395v-9.207h6.262c3.41 0 4.681-1.271 4.681-4.154v-3.875c0-2.883-1.271-4.154-4.681-4.154H521.2v-5.3c0-.93-.868-1.4-1.736-1.4s-1.736.465-1.736 1.4v5.3h-6.138c-3.41 0-4.681 1.271-4.681 4.154v3.875c0 2.883 1.271 4.154 4.681 4.154zm-5.735-3.038c-1.209-.031-1.643-.155-1.674-1.457v-3.193c0-1.147.279-1.457 1.674-1.457h5.732v6.107zm9.207-6.107h5.859c1.4 0 1.674.31 1.674 1.457v3.193c0 1.147-.279 1.457-1.674 1.457H521.2z" fill="#fff"/><g data-name="グループ 398"><g data-name="グループ 397" clip-path="url(#a)" transform="translate(38 4.785)"><path data-name="パス 673" d="M40.8 4.092s-3.2 1.4-4.584 1.374l-.1-.251c.777-.647 3.182-2.759 3.484-4.372a24.8 24.8 0 01-4.946 2.08 8.666 8.666 0 00-14.98 7.466c-3-.077-10.381-1.134-17.262-8.944 0 0-3.731 6.619 2.527 11.554a4.719 4.719 0 01-3.49-1.083s-.6 5.416 6.138 8.425a8.093 8.093 0 01-3.25.361s1.2 4.934 7.7 5.9c0 0-4.333 3.851-12.035 3.37 0 0 9.026 6.379 22.145 1.926S37.068 11.072 36.828 8.665A14.688 14.688 0 0040.8 4.092" fill="#fff"/></g></g></g></g></g></svg>