<svg xmlns="http://www.w3.org/2000/svg" width="63.81" height="60"><g data-name="グループ 537"><g data-name="グループ 529"><g data-name="グループ 355"><path data-name="パス 666" d="M16.781 0L0 16.782V60h63.81V0z" fill="#d6a965"/><path data-name="パス 667" d="M3.178 57.651h-.829v-.829" fill="none" stroke="#1a1311" stroke-miterlimit="10"/><path data-name="線 41" fill="none" stroke="#1a1311" stroke-miterlimit="10" stroke-dasharray="1.962 1.962" d="M2.349 55.196V3.99"/><path data-name="パス 668" d="M2.349 3.178v-.829h.829" fill="none" stroke="#1a1311" stroke-miterlimit="10"/><path data-name="線 42" fill="none" stroke="#1a1311" stroke-miterlimit="10" stroke-dasharray="1.981 1.981" d="M4.819 2.349h54.992"/><path data-name="パス 669" d="M60.633 2.349h.829v.829" fill="none" stroke="#1a1311" stroke-miterlimit="10"/><path data-name="線 43" fill="none" stroke="#1a1311" stroke-miterlimit="10" stroke-dasharray="1.962 1.962" d="M61.461 4.803v51.206"/><path data-name="パス 670" d="M61.461 56.822v.829h-.829" fill="none" stroke="#1a1311" stroke-miterlimit="10"/><path data-name="線 44" fill="none" stroke="#1a1311" stroke-miterlimit="10" stroke-dasharray="1.981 1.981" d="M58.991 57.651H3.999"/></g><path data-name="パス 702" d="M20.311 14.227c1.1.308 1.452.7 1.452 1.364a1.315 1.315 0 01-1.441 1.386 2.022 2.022 0 01-1.793-.935.577.577 0 00-.462-.209.629.629 0 00-.66.594.784.784 0 00.187.473 3.219 3.219 0 002.706 1.177 2.521 2.521 0 002.772-2.508c0-1.43-.605-2.079-2.332-2.563l-.4-.11c-1.089-.3-1.386-.649-1.386-1.364 0-.594.462-1.012 1.243-1.012a1.7 1.7 0 011.386.737.594.594 0 00.473.2.632.632 0 00.671-.66.6.6 0 00-.22-.451 3.044 3.044 0 00-2.354-.913 2.211 2.211 0 00-2.493 2.176c0 1.331.583 2.046 2.255 2.508zm7.381-3.5h1.947a.519.519 0 00.539-.561.519.519 0 00-.539-.561H24.37a.519.519 0 00-.539.561.519.519 0 00.539.561h1.936v6.646a.628.628 0 00.7.627.61.61 0 00.682-.627zm5.72 6.05c-.506 0-.616-.143-.616-.583v-2.066H35.5a.519.519 0 00.539-.561.519.519 0 00-.539-.561h-2.7v-1.694c0-.44.11-.583.616-.583h2.717a.519.519 0 00.539-.561.519.519 0 00-.539-.561h-3.04c-1.3 0-1.661.429-1.661 1.485v5.324c0 1.056.368 1.484 1.661 1.484h3.322a.519.519 0 00.539-.561.519.519 0 00-.539-.561zm6.457-7.26c-1.265 0-1.65.429-1.65 1.485v6.371A.61.61 0 0038.9 18a.593.593 0 00.66-.627v-3.036h1.606c1.815 0 2.838-1.012 2.838-2.442 0-1.507-.792-2.376-2.706-2.376zm-.308 3.753v-2.09c0-.44.11-.583.616-.583h1.045c.946 0 1.408.462 1.408 1.32a1.314 1.314 0 01-1.463 1.353z" fill="#785039"/><path data-name="パス 701" d="M28.622 35.921a1.31 1.31 0 00-1.363 1.421 1.333 1.333 0 001.363 1.45h1.827c2.552 0 4.06 1.392 4.06 3.6a3.865 3.865 0 01-4.176 3.908 7.041 7.041 0 01-4.321-1.534 1.419 1.419 0 00-.841-.232 1.487 1.487 0 00-1.537 1.508 1.568 1.568 0 00.638 1.334 9.909 9.909 0 006.061 1.824c4.524 0 7.656-2.81 7.656-6.957a5.338 5.338 0 00-4.147-5.162 4.335 4.335 0 003.422-4.581c0-3.306-2.61-5.626-6.844-5.626a9.229 9.229 0 00-5.771 2.116 1.247 1.247 0 00-.435 1.044 1.64 1.64 0 001.624 1.624 1.419 1.419 0 001.044-.435 5.59 5.59 0 013.538-1.45c2.117 0 3.451 1.189 3.451 2.871 0 2.059-1.247 3.277-3.6 3.277z" fill="#4d3a32"/></g></g></svg>